<?xml version="1.0" encoding="UTF-8" standalone="no"?>
<!-- Created with Inkscape (http://www.inkscape.org/) -->

<svg
   width="43.900002mm"
   height="50.799999mm"
   viewBox="0 0 43.900002 50.799999"
   version="1.1"
   id="svg5"
   sodipodi:docname="fosdem.hex.svg"
   inkscape:version="1.3.2 (091e20ef0f, 2023-11-25)"
   xmlns:inkscape="http://www.inkscape.org/namespaces/inkscape"
   xmlns:sodipodi="http://sodipodi.sourceforge.net/DTD/sodipodi-0.dtd"
   xmlns:xlink="http://www.w3.org/1999/xlink"
   xmlns="http://www.w3.org/2000/svg"
   xmlns:svg="http://www.w3.org/2000/svg">
  <sodipodi:namedview
     id="namedview8"
     pagecolor="#ffffff"
     bordercolor="#666666"
     borderopacity="1.0"
     inkscape:pageshadow="2"
     inkscape:pageopacity="0.0"
     inkscape:pagecheckerboard="0"
     inkscape:document-units="mm"
     showgrid="false"
     fit-margin-top="0"
     fit-margin-left="0"
     fit-margin-right="0"
     fit-margin-bottom="0"
     inkscape:zoom="3.2924898"
     inkscape:cx="71.982"
     inkscape:cy="87.623658"
     inkscape:window-width="1920"
     inkscape:window-height="1007"
     inkscape:window-x="0"
     inkscape:window-y="0"
     inkscape:window-maximized="1"
     inkscape:current-layer="svg5"
     inkscape:showpageshadow="2"
     inkscape:deskcolor="#d1d1d1" />
  <defs
     id="defs2">
    <linearGradient
       gradientUnits="userSpaceOnUse"
       y2="161.62906"
       x2="79.058426"
       y1="157.91002"
       x1="100.54038"
       id="linearGradient884"
       xlink:href="#linearGradient880" />
    <linearGradient
       id="linearGradient880">
      <stop
         id="stop876"
         offset="0"
         style="stop-color:#784421;stop-opacity:1;" />
      <stop
         id="stop878"
         offset="1"
         style="stop-color:#784421;stop-opacity:0;" />
    </linearGradient>
    <linearGradient
       gradientUnits="userSpaceOnUse"
       y2="187.636"
       x2="162.18832"
       y1="188.57594"
       x1="188.85896"
       id="linearGradient1106"
       xlink:href="#linearGradient880" />
    <linearGradient
       gradientUnits="userSpaceOnUse"
       y2="208.92482"
       x2="-1.8827039"
       y1="261.78836"
       x1="-1.8827039"
       id="linearGradient1408-6"
       xlink:href="#linearGradient1406" />
    <linearGradient
       id="linearGradient1406">
      <stop
         id="stop1402"
         offset="0"
         style="stop-color:#000000;stop-opacity:1;" />
      <stop
         id="stop1404"
         offset="1"
         style="stop-color:#000000;stop-opacity:0;" />
    </linearGradient>
    <radialGradient
       gradientUnits="userSpaceOnUse"
       gradientTransform="matrix(1,0,0,1.4639338,0,-64.581152)"
       r="56.134296"
       fy="127.04554"
       fx="140.49042"
       cy="127.04554"
       cx="140.49042"
       id="radialGradient1608"
       xlink:href="#linearGradient1606" />
    <linearGradient
       id="linearGradient1606">
      <stop
         id="stop1602"
         offset="0"
         style="stop-color:#fdbc5c;stop-opacity:1" />
      <stop
         id="stop1604"
         offset="1"
         style="stop-color:#fdd08c;stop-opacity:0;" />
    </linearGradient>
    <linearGradient
       gradientUnits="userSpaceOnUse"
       y2="276.31"
       y1="233.23"
       x2="529.53003"
       x1="479.79001"
       id="d">
      <stop
         id="stop16254"
         stop-color="#fff"
         offset="0" />
      <stop
         id="stop16256"
         stop-opacity="0"
         stop-color="#fff"
         offset="1" />
    </linearGradient>
    <clipPath
       id="c">
      <path
         id="path16259"
         fill="#009688"
         fill-rule="evenodd"
         d="m 503.51,222.01 c -20.04,0 -36.286,16.246 -36.286,36.286 0,1.925 0.151,3.814 0.44,5.657 1.402,6.762 6.687,9.389 6.687,9.389 1.108,0.908 2.484,1.836 4.073,2.752 l -0.13,-0.004 c 0,0 3.331,18.563 9.444,18.41 4.622,-0.116 8.25,-9.453 14.128,-9.265 5.872,0.188 8.256,9.151 14.1,9.213 3.374,0.036 6.307,-5.744 8.16,-10.528 0.586,-0.12 1.17,-0.25 1.749,-0.392 5.556,5.254 18.398,10.599 23.87,12.412 a 0.533,0.533 0 0 0 0.177,-0.14 c 1.396,-1.82 -7.954,-16.01 -12.983,-23.372 a 36.17,36.17 0 0 0 2.856,-14.132 c 0,-20.04 -16.246,-36.286 -36.286,-36.286 z" />
    </clipPath>
    <filter
       color-interpolation-filters="sRGB"
       height="1.1272249"
       width="1.1135408"
       y="-0.063612454"
       x="-0.056770418"
       id="b">
      <feGaussianBlur
         id="feGaussianBlur16262"
         stdDeviation="7.406" />
    </filter>
    <filter
       color-interpolation-filters="sRGB"
       height="1.071391"
       width="1.072607"
       y="-0.035695516"
       x="-0.036303554"
       id="a">
      <feGaussianBlur
         id="feGaussianBlur16265"
         stdDeviation="1.279" />
    </filter>
    <clipPath
       clipPathUnits="userSpaceOnUse"
       id="clipPath23988">
      <g
         id="g23992"
         transform="matrix(0.26458333,0,0,0.26458333,3.3408165,-1.7150507)"
         style="fill:#f9f9f9;fill-opacity:1">
        <path
           id="path23990"
           style="fill:#f9f9f9;fill-opacity:1;stroke-width:1.32497"
           d="m 69.949472,6.4820816 -3.45118,1.98438 -75.8964796,43.8515594 -3.2285204,1.99219 v 3.99023 87.705079 3.99024 l 3.2265704,1.99218 76.0136696,43.85157 3.38867,1.98632 3.41797,-1.98632 76.140618,-43.85157 3.47071,-1.99218 v -3.99024 -87.705079 -3.99023 L 149.54712,52.318021 73.404542,8.4664616 Z m -0.02735,4.4843794 78.835938,45.5957 v 91.183599 l -78.835938,45.5957 -78.1757796,-45.21289 -0.66016,-0.38281 V 56.562161 Z m 0,3.06055 -76.1855396,44.06054 V 146.21646 L 69.922122,190.28091 146.10767,146.21646 V 58.087551 Z" />
      </g>
    </clipPath>
  </defs>
  <g
     id="g1023"
     transform="matrix(0.26500347,0,0,0.26549077,3.3461214,-1.7209328)"
     style="fill:#f9f9f9;fill-opacity:1">
    <path
       id="polygon4013"
       style="fill:#f9f9f9;fill-opacity:1;stroke-width:1.32497"
       d="m 69.949472,6.4820816 -3.45118,1.98438 -75.8964796,43.8515594 -3.2285204,1.99219 v 3.99023 87.705079 3.99024 l 3.2265704,1.99218 76.0136696,43.85157 3.38867,1.98632 3.41797,-1.98632 76.140618,-43.85157 3.47071,-1.99218 v -3.99024 -87.705079 -3.99023 L 149.54712,52.318021 73.404542,8.4664616 Z m -0.02735,4.4843794 78.835938,45.5957 v 91.183599 l -78.835938,45.5957 -78.1757796,-45.21289 -0.66016,-0.38281 V 56.562161 Z m 0,3.06055 -76.1855396,44.06054 V 146.21646 L 69.922122,190.28091 146.10767,146.21646 V 58.087551 Z" />
  </g>
  <path
     id="path53"
     style="fill:#f2f2f2;fill-opacity:1;fill-rule:nonzero;stroke:none;stroke-width:0.353663"
     d="m 21.758971,35.731323 c -5.512777,0 -10.106173,-4.48998 -10.106173,-10.095729 0,-5.57814 4.593396,-10.150952 10.106173,-10.150952 5.595462,0 10.161296,4.572812 10.161296,10.150952 0,5.605749 -4.565834,10.095729 -10.161296,10.095729 z m 15.744035,-10.116259 -0.07843,-1.570999 c 1.215836,-0.521423 2.414004,-1.139485 3.594155,-1.852771 -0.09681,-0.739836 -0.335674,-1.453473 -0.509515,-2.178088 -1.389678,-0.189382 -2.796317,-0.251683 -4.136529,-0.214163 -0.178081,-0.492396 -0.438844,-0.950103 -0.656856,-1.428339 -0.236028,-0.467618 -0.532832,-0.901607 -0.797835,-1.355067 0.848717,-1.038599 1.606628,-2.135251 2.321431,-3.32005 -0.42648,-0.611335 -0.970267,-1.125679 -1.460346,-1.684272 -1.315125,0.481068 -2.589262,1.081431 -3.758103,1.738079 -0.389381,-0.351157 -0.829638,-0.640364 -1.24375,-0.962493 -0.429306,-0.298411 -0.888645,-0.552929 -1.333144,-0.829393 0.26889,-1.31117 0.436018,-2.6386252 0.520113,-4.0198846 C 29.30027,7.594609 28.5784,7.3900048 27.884444,7.1216812 c -0.942706,1.0386019 -1.79319,2.1656974 -2.523186,3.2910238 -0.505272,-0.135577 -1.032453,-0.175578 -1.545854,-0.266906 -0.519053,-0.08283 -1.04482,-0.06903 -1.5667,-0.107614 -0.371005,-1.3178934 -0.839178,-2.538797 -1.402045,-3.8039516 -0.742717,0.015221 -1.479782,0.1313319 -2.215431,0.2488553 -0.358637,1.3313458 -0.589367,2.7349077 -0.710914,4.0846623 -0.5134,0.110445 -1.003129,0.297351 -1.494622,0.481071 -0.49962,0.160356 -0.964611,0.403899 -1.436671,0.630453 -0.937404,-0.984441 -1.936645,-1.8803832 -3.014679,-2.7154398 -0.64873,0.3688533 -1.255764,0.7975329 -1.842658,1.2566548 0.305283,1.349755 0.748369,2.688182 1.269897,3.943778 -0.400331,0.340183 -0.749431,0.731339 -1.098528,1.122848 -0.3685323,0.374519 -0.6653368,0.807446 -0.9815742,1.22657 -1.2861481,-0.438592 -2.5807806,-0.766032 -3.9252321,-1.008159 -0.4056311,0.626558 -0.7413003,1.291347 -1.0529454,1.970297 0.8914714,1.05382 1.9101444,2.038262 2.9507251,2.905176 -0.1985758,0.486734 -0.3243652,0.997182 -0.4512133,1.505864 -0.1505207,0.503371 -0.2180097,1.02621 -0.2953893,1.544801 -1.3373863,0.214163 -2.6571026,0.526735 -3.944667,0.940193 -0.049819,0.742667 -0.071724,1.484977 -0.01237,2.227644 1.2988683,0.515761 2.6030389,0.916829 3.9570316,1.198958 0.077383,0.518238 0.1448686,1.03966 0.2953893,1.544447 0.1268481,0.508681 0.2526375,1.01913 0.4512133,1.505864 -1.0543616,0.79789 -2.1253265,1.710468 -3.0613204,2.671545 0.3257775,0.670454 0.622583,1.357898 1.0296274,1.982685 1.4023983,-0.156109 2.7288303,-0.401068 4.0591454,-0.786559 0.3162373,0.417352 0.6130419,0.853109 0.9815746,1.226213 0.349097,0.39151 0.698197,0.782668 1.098528,1.122849 -0.565695,1.198958 -1.087574,2.500214 -1.4755391,3.787315 0.5964321,0.446731 1.1787351,0.911519 1.8274631,1.279311 1.167784,-0.7855 2.234862,-1.623388 3.235516,-2.583049 0.47206,0.227969 0.937051,0.470096 1.436671,0.631868 0.491493,0.184074 0.981222,0.370626 1.494622,0.482486 0.05688,1.322144 0.198927,2.721457 0.456863,4.041831 0.735653,0.103721 1.468828,0.264077 2.211192,0.275404 0.666747,-1.258427 1.220075,-2.472606 1.660335,-3.789084 0.52188,-0.03858 1.047647,-0.02478 1.5667,-0.107613 0.513401,-0.09275 1.040582,-0.13133 1.545854,-0.268325 0.665335,1.150463 1.425717,2.277559 2.278677,3.372442 0.701376,-0.246021 1.410524,-0.4839 2.091054,-0.785143 0.0099,-1.42303 -0.07986,-2.790487 -0.28691,-4.128914 0.444499,-0.278233 0.903838,-0.533812 1.333144,-0.832579 0.414112,-0.320712 0.854369,-0.609919 1.24375,-0.959661 1.121848,0.706558 2.318602,1.349755 3.580372,1.922153 0.504922,-0.543371 1.023975,-1.081431 1.482254,-1.664804 -0.651556,-1.266921 -1.358232,-2.431187 -2.165608,-3.52607 0.265003,-0.452397 0.561807,-0.887802 0.797835,-1.355067 0.218012,-0.477175 0.478775,-0.934881 0.656856,-1.428693 1.322193,0.105133 2.680422,0.117524 4.063388,0.03469 0.197517,-0.717533 0.400333,-1.439313 0.542375,-2.16959 -1.163547,-0.815943 -2.348996,-1.51967 -3.553879,-2.10729 l 0.07844,-1.572058" />
  <path
     id="path55"
     style="fill:#ffffff;stroke:#ffffff;stroke-width:0.152325;stroke-linecap:butt;stroke-linejoin:miter;stroke-miterlimit:10;stroke-dasharray:none;stroke-opacity:1"
     d="m 21.758971,35.729907 c -5.512777,0 -10.106173,-4.48998 -10.106173,-10.094313 0,-5.57814 4.593396,-10.150952 10.106173,-10.150952 5.595462,0 10.161296,4.572812 10.161296,10.150952 0,5.604333 -4.565834,10.094313 -10.161296,10.094313 z" />
  <path
     id="path59"
     style="fill:#999999;fill-opacity:1;fill-rule:nonzero;stroke:none;stroke-width:0.353663"
     d="m 17.931614,23.123343 c -1.369183,0 -2.480433,1.110105 -2.480433,2.483224 0,1.371703 1.11125,2.484994 2.480433,2.484994 1.36636,0 2.480079,-1.113291 2.480079,-2.484994 0,-1.373119 -1.113719,-2.483224 -2.480079,-2.483224" />
  <g
     transform="matrix(0.353338,0,0,-0.35398774,1.3494629,5.0241694)"
     id="g61"
     style="fill:#999999">
    <path
       id="path63"
       style="fill:#999999;stroke:#ffffff;stroke-width:0.663717;stroke-linecap:butt;stroke-linejoin:miter;stroke-miterlimit:10;stroke-dasharray:none;stroke-opacity:1"
       d="m 46.93,-51.133 c -3.875,0 -7.02,-3.133 -7.02,-7.012 0,-3.875 3.145,-7.015 7.02,-7.015 3.867,0 7.019,3.14 7.019,7.015 0,3.879 -3.152,7.012 -7.019,7.012 z" />
  </g>
  <path
     id="path65"
     style="fill:#999999;fill-opacity:1;fill-rule:nonzero;stroke:none;stroke-width:0.353663"
     d="m 25.644278,23.123343 c -1.367773,0 -2.480436,1.110105 -2.480436,2.483224 0,1.371703 1.112663,2.484994 2.480436,2.484994 1.369182,0 2.477603,-1.113291 2.477603,-2.484994 0,-1.373119 -1.108421,-2.483224 -2.477603,-2.483224" />
  <g
     transform="matrix(0.353338,0,0,-0.35398774,1.3494629,5.0241694)"
     id="g67"
     style="fill:#999999">
    <path
       id="path69"
       style="fill:#999999;stroke:#ffffff;stroke-width:0.663717;stroke-linecap:butt;stroke-linejoin:miter;stroke-miterlimit:10;stroke-dasharray:none;stroke-opacity:1"
       d="m 68.758,-51.133 c -3.871,0 -7.02,-3.133 -7.02,-7.012 0,-3.875 3.149,-7.015 7.02,-7.015 3.875,0 7.012,3.14 7.012,7.015 0,3.879 -3.137,7.012 -7.012,7.012 z" />
  </g>
  <path
     id="path71"
     style="fill:#999999;fill-opacity:1;fill-rule:nonzero;stroke:none;stroke-width:0.353663"
     d="m 25.644278,28.091561 c -1.367773,0 -2.480436,-1.113291 -2.480436,-2.484994 0,-1.373119 1.112663,-2.483224 2.480436,-2.483224 1.369182,0 2.477603,1.110105 2.477603,2.483224 0,1.371703 -1.108421,2.484994 -2.477603,2.484994 z m -7.712664,0 c -1.369183,0 -2.480433,-1.113291 -2.480433,-2.484994 0,-1.373119 1.11125,-2.483224 2.480433,-2.483224 1.36636,0 2.480079,1.110105 2.480079,2.483224 0,1.371703 -1.113719,2.484994 -2.480079,2.484994" />
  <g
     transform="matrix(0.353338,0,0,-0.35398774,1.3494629,5.0241694)"
     id="g73"
     style="fill:#f2f2f2">
    <path
       id="path75"
       style="fill:#f2f2f2;stroke:#ffffff;stroke-width:0.663717;stroke-linecap:butt;stroke-linejoin:miter;stroke-miterlimit:10;stroke-dasharray:none;stroke-opacity:1"
       d="m 68.758,-65.16 c -3.871,0 -7.02,3.14 -7.02,7.015 0,3.879 3.149,7.012 7.02,7.012 3.875,0 7.012,-3.133 7.012,-7.012 0,-3.875 -3.137,-7.015 -7.012,-7.015 z" />
  </g>
  <g
     transform="matrix(0.353338,0,0,-0.35398774,1.3494629,5.0241694)"
     id="g77"
     style="fill:#f2f2f2">
    <path
       id="path79"
       style="fill:#f2f2f2;stroke:#ffffff;stroke-width:0.663717;stroke-linecap:butt;stroke-linejoin:miter;stroke-miterlimit:10;stroke-dasharray:none;stroke-opacity:1"
       d="m 46.93,-65.16 c -3.875,0 -7.02,3.14 -7.02,7.015 0,3.879 3.145,7.012 7.02,7.012 3.867,0 7.019,-3.133 7.019,-7.012 0,-3.875 -3.152,-7.015 -7.019,-7.015 z" />
  </g>
  <g
     id="g44"
     transform="matrix(0.02803721,0,0,-0.02808877,82.739514,48.501356)" />
  <g
     id="g23498"
     transform="matrix(0.00732749,0,0,-0.00734096,20.791559,18.339323)">
    <path
       id="path41"
       style="fill:#231f20;fill-opacity:1;fill-rule:nonzero;stroke:none;stroke-width:12.6025"
       d="m -2168.5783,-1757.4367 1.3736,-107.4738 v -86.7806 h 296.2588 c 7.3346,-27.5742 11.0272,-57.6563 11.0272,-90.2841 0,-32.59 -3.6926,-62.672 -11.0272,-90.2462 h -296.2588 v -378.9562 c -29.2377,-5.5073 -65.7722,-8.2672 -109.5784,-8.2672 -43.8188,0 -80.3407,2.7599 -109.5406,8.2672 v 932.885 l 9.6534,8.3176 h 589.7576 c 5.5073,-22.9995 8.2673,-51.6953 8.2673,-86.1505 0,-34.4677 -9.4519,-59.9625 -28.3052,-76.5095 -18.9037,-16.5345 -48.6455,-24.8017 -89.2002,-24.8017 h -272.4275" />
    <path
       id="path43"
       style="fill:#231f20;fill-opacity:1;fill-rule:nonzero;stroke:none;stroke-width:12.6025"
       d="m -1457.585,-2254.8434 c 24.8142,-71.6829 74.8838,-107.5117 150.1962,-107.5117 37.6688,0 68.2423,9.4015 91.6703,28.2548 23.428,18.8028 41.7898,42.7349 55.0854,71.6702 13.346,28.8974 22.3064,61.2984 26.8811,97.1272 4.6251,35.8414 6.8935,71.1913 6.8935,106.0876 0,32.1488 -1.1342,67.9903 -3.4531,107.5242 -2.2558,39.4709 -8.9603,76.4466 -19.9875,110.9017 -11.0271,34.4677 -28.4437,63.4156 -52.3254,86.8436 -23.9195,23.3902 -58.8283,35.0979 -104.7643,35.0979 -44.0582,0 -77.8202,-11.2666 -101.2608,-33.7242 -23.428,-22.5459 -40.8572,-50.3091 -52.3759,-83.3906 -11.4682,-33.0814 -18.6138,-68.1793 -21.3612,-105.3944 -2.7095,-37.2151 -4.0832,-70.1075 -4.0832,-98.5513 0,-42.2434 2.0164,-79.8996 6.2005,-112.9811 4.0832,-33.0814 11.6698,-67.0577 22.6844,-101.9539 z m -111.5948,-190.1712 c -98.3119,81.7144 -147.4363,216.3087 -147.4363,403.72 0,80.8322 9.4014,151.8219 28.2547,212.9186 18.8029,61.0842 45.936,112.288 81.2733,153.6367 35.35,41.3487 78.3244,72.565 128.835,93.6867 50.5611,21.1596 107.5117,31.6952 170.8643,31.6952 63.4156,0 120.6182,-10.5356 171.57,-31.6952 51.0021,-21.1217 94.1656,-52.5775 129.5659,-94.3672 35.34992,-41.8528 62.42002,-93.2457 81.27331,-154.3424 18.80288,-61.0842 28.25473,-131.5824 28.25473,-211.5324 0,-79.8997 -9.45185,-150.4357 -28.25473,-211.482 -18.85329,-61.1472 -45.92339,-112.3384 -81.27331,-153.6367 -35.4003,-41.3613 -78.5638,-72.6154 -129.5659,-93.7371 -50.9518,-21.1218 -108.1544,-31.7078 -171.57,-31.7078 -104.7013,0 -191.986,28.9478 -261.791,86.8436" />
    <path
       id="path45"
       style="fill:#231f20;fill-opacity:1;fill-rule:nonzero;stroke:none;stroke-width:12.6025"
       d="m -826.46611,-2429.8539 c 2.74733,30.2838 12.14877,60.6053 28.25472,90.9268 16.04294,30.3216 35.14828,55.1358 57.2026,74.4302 98.26142,-59.7609 191.54488,-89.5909 279.71173,-89.5909 38.60135,0 66.85608,8.7083 84.77679,26.1879 17.8703,17.4292 26.83065,39.0424 26.83065,64.7893 0,43.1634 -28.94787,77.1397 -86.79318,101.9539 l -162.59702,68.9103 c -63.41561,28.4564 -112.09894,62.6721 -146.06258,102.6471 -34.01406,39.975 -51.00218,90.7251 -51.00218,152.263 0,42.2308 8.46886,80.8322 25.49479,115.7284 16.98812,34.9088 40.85719,65.2304 71.68282,90.9772 30.76262,25.6964 67.24676,45.684 109.52804,59.9121 42.24346,14.2282 89.11203,21.3612 140.5553,21.3612 102.88653,0 206.70565,-26.1879 311.40693,-78.5133 -4.57469,-70.7881 -29.38895,-125.8735 -74.43016,-165.357 -93.67413,44.9908 -176.3337,67.5366 -248.00393,67.5366 -36.77399,0 -64.34819,-8.3176 -82.65957,-24.852 -18.41221,-16.4967 -27.5742,-35.35 -27.5742,-56.4717 0,-35.8414 27.0827,-64.7893 81.28591,-86.8436 l 165.35695,-70.2461 c 69.80506,-29.4394 121.94146,-67.0956 156.39661,-112.9811 34.45514,-45.9738 51.68271,-99.2445 51.68271,-159.8875 0,-43.1761 -7.82613,-82.6596 -23.42798,-118.4884 -15.60186,-35.8414 -38.7904,-66.8057 -69.55301,-92.9936 -30.82564,-26.1879 -69.17494,-46.6669 -115.09833,-61.3488 -45.93599,-14.6693 -99.6855,-22.0543 -161.22334,-22.0543 -119.43357,0 -233.34726,33.9762 -341.74107,102.0043" />
    <path
       id="path47"
       style="fill:#231f20;fill-opacity:1;fill-rule:nonzero;stroke:none;stroke-width:12.6025"
       d="m 380.66109,-2347.1943 c 121.24833,0 181.89139,102.0044 181.89139,305.8997 0,204.8404 -60.64306,307.2859 -181.89139,307.2859 h -77.88324 c -22.4954,0 -42.04183,0.4411 -58.57626,1.3737 v -615.9456 c 16.53443,0.9452 36.08086,1.3863 58.57626,1.3863 z m 253.52381,-103.3276 c -29.38895,-23.9321 -67.9903,-41.3613 -115.74105,-52.3885 -47.80115,-11.0271 -100.61809,-16.5344 -158.46341,-16.5344 -28.50677,0 -69.60342,0.4915 -123.36554,1.3737 -53.71171,0.9325 -120.99627,2.3188 -201.841091,4.1336 l -9.640886,9.6535 v 927.365 l 9.640886,9.6535 c 53.270624,1.8148 108.608051,3.1884 166.050091,4.1336 57.40423,0.9326 117.80785,1.3737 181.21086,1.3737 78.03447,0 143.30264,-12.4008 195.64068,-37.2151 52.37585,-24.7638 94.16563,-58.7779 125.43235,-101.9539 31.2037,-43.1761 53.25802,-93.9262 66.11253,-152.263 12.84192,-58.3368 19.29438,-121.0467 19.29438,-188.1044 0,-91.8594 -10.58607,-171.3054 -31.70781,-238.3631 -21.10913,-67.0955 -61.97892,-124.0082 -122.62199,-170.8642" />
    <path
       id="path49"
       style="fill:#231f20;fill-opacity:1;fill-rule:nonzero;stroke:none;stroke-width:12.6025"
       d="m 1161.9636,-2232.7891 -1.3863,-99.2444 v -1.3737 c 42.0922,1.8148 76.0181,2.7473 101.6137,2.7473 h 318.6533 c 0,-34.014 -1.3736,-60.1515 -4.1336,-78.5637 -11.0271,-70.7377 -57.8453,-106.0876 -140.5427,-106.0876 h -366.5553 c -39.4835,0 -70.49819,11.4683 -92.99359,34.4551 -22.54582,22.9491 -33.77461,54.2033 -33.77461,93.6868 v 807.4904 l 9.65349,9.7039 h 593.89121 c 5.5073,-26.6794 8.2672,-55.6273 8.2672,-86.8436 0,-31.2541 -6.402,-63.8441 -19.244,-97.8708 h -374.8351 l 1.3863,-99.194 v -96.434 c 23.7808,0.8821 54.8333,1.3736 93.233,1.3736 h 209.9193 c 8.2672,-25.7468 12.4008,-55.1358 12.4008,-88.2172 0,-33.0815 -4.1336,-63.3526 -12.4008,-90.9142 h -303.1523 v -104.7139" />
    <path
       id="path51"
       style="fill:#231f20;fill-opacity:1;fill-rule:nonzero;stroke:none;stroke-width:12.6025"
       d="m 1704.8526,-2508.4176 73.0565,937.0059 c 40.4161,7.3346 88.1669,11.0272 143.3026,11.0272 55.0854,0 103.3277,-3.6926 144.6763,-11.0272 l 81.286,-337.6075 c 32.1362,-152.452 49.1244,-235.6031 51.0021,-249.3902 h 9.6409 c 3.6421,22.9491 20.6807,106.0876 51.0022,249.3902 l 82.6596,337.6075 c 40.4161,7.3346 88.2172,11.0272 143.3026,11.0272 55.1358,0 103.378,-3.6926 144.7267,-11.0272 l 73.0061,-937.0059 c -28.5068,-7.3347 -63.6046,-11.0272 -105.3944,-11.0272 -41.8528,0 -76.0559,2.3062 -102.6975,6.8935 l -22.0543,383.0898 c -6.4399,152.4646 -10.082,258.5522 -10.9768,318.3131 h -8.2672 l -136.4595,-560.8602 c -33.031,-5.5072 -70.9393,-8.2672 -113.6742,-8.2672 -42.7224,0 -80.5802,2.76 -113.6617,8.2672 l -135.0354,560.8602 h -9.6535 c 0,-81.7648 -3.6925,-187.8524 -11.0271,-318.3131 l -20.6681,-383.0898 c -26.6794,-4.5873 -60.8447,-6.8935 -102.6471,-6.8935 -41.8402,0 -76.9884,3.6925 -105.4448,11.0272" />
  </g>
  <g
     transform="matrix(0.18886029,0,0,-0.18920758,11.038931,8.002808)"
     id="g23897">
    <path
       id="path23895"
       style="fill:none;stroke:#ffffff;stroke-width:0.663717;stroke-linecap:butt;stroke-linejoin:miter;stroke-miterlimit:10;stroke-dasharray:none;stroke-opacity:1"
       d="m 46.93,-51.133 c -3.875,0 -7.02,-3.133 -7.02,-7.012 0,-3.875 3.145,-7.015 7.02,-7.015 3.867,0 7.019,3.14 7.019,7.015 0,3.879 -3.152,7.012 -7.019,7.012 z" />
  </g>
  <g
     transform="matrix(0.18886029,0,0,-0.18920758,11.038931,8.002808)"
     id="g23903">
    <path
       id="path23901"
       style="fill:none;stroke:#ffffff;stroke-width:0.663717;stroke-linecap:butt;stroke-linejoin:miter;stroke-miterlimit:10;stroke-dasharray:none;stroke-opacity:1"
       d="m 68.758,-51.133 c -3.871,0 -7.02,-3.133 -7.02,-7.012 0,-3.875 3.149,-7.015 7.02,-7.015 3.875,0 7.012,3.14 7.012,7.015 0,3.879 -3.137,7.012 -7.012,7.012 z" />
  </g>
  <g
     id="g23977"
     transform="matrix(1.0015879,0,0,1.0034297,-46.562561,-0.39708929)">
    <path
       id="path23887"
       style="fill:#ac1d94;fill-opacity:1;fill-rule:nonzero;stroke:none;stroke-width:0.188561"
       d="m 68.389154,24.332639 c -2.941926,0 -5.393218,-2.391706 -5.393218,-5.377756 0,-2.971342 2.451292,-5.407171 5.393218,-5.407171 2.986051,0 5.422635,2.435829 5.422635,5.407171 0,2.98605 -2.436584,5.377756 -5.422635,5.377756 z m 8.401895,-5.388691 -0.04186,-0.836834 c 0.648838,-0.27775 1.288247,-0.606977 1.918041,-0.986928 -0.05167,-0.394093 -0.179134,-0.77423 -0.271905,-1.160215 -0.74161,-0.10088 -1.492271,-0.134066 -2.207483,-0.11408 -0.09503,-0.262287 -0.234192,-0.506097 -0.350535,-0.760842 -0.125958,-0.24909 -0.284349,-0.480265 -0.425769,-0.721812 0.452923,-0.553237 0.857386,-1.137398 1.238845,-1.768512 -0.227594,-0.325644 -0.517789,-0.599623 -0.779323,-0.897172 -0.701824,0.256253 -1.381774,0.576053 -2.005533,0.925834 -0.207795,-0.187054 -0.442741,-0.341108 -0.663734,-0.512697 -0.229102,-0.158957 -0.474231,-0.294533 -0.71144,-0.441799 0.143495,-0.698429 0.232683,-1.405533 0.277561,-2.1412969 C 72.41361,9.3448785 72.028379,9.2358907 71.658046,9.0929611 71.154965,9.6461996 70.7011,10.246577 70.311533,10.846011 c -0.269642,-0.07222 -0.550975,-0.09353 -0.824954,-0.142174 -0.276996,-0.04412 -0.557575,-0.03677 -0.836079,-0.05732 -0.197989,-0.7020111 -0.447832,-1.3523575 -0.748209,-2.0262753 -0.396355,0.00811 -0.789694,0.069957 -1.182277,0.1325593 -0.19139,0.7091763 -0.31452,1.45682 -0.379384,2.175803 -0.273979,0.05883 -0.535326,0.158392 -0.797614,0.256255 -0.266625,0.08542 -0.51477,0.215148 -0.766688,0.335827 -0.500251,-0.524388 -1.033502,-1.001635 -1.6088,-1.44645 -0.346199,0.196479 -0.670146,0.424827 -0.983346,0.66939 0.162916,0.718983 0.399372,1.431931 0.677688,2.100757 -0.213639,0.181208 -0.399938,0.389567 -0.586236,0.598115 -0.196669,0.199497 -0.355061,0.430107 -0.523823,0.653364 -0.68636,-0.233627 -1.377248,-0.408047 -2.094722,-0.537022 -0.216468,0.333753 -0.3956,0.68787 -0.561911,1.049531 0.475739,0.561345 1.01936,1.085733 1.574672,1.547518 -0.105972,0.259271 -0.1731,0.531175 -0.240793,0.802138 -0.08033,0.268134 -0.116342,0.546637 -0.157636,0.822879 -0.713704,0.114079 -1.417979,0.280579 -2.105095,0.500818 -0.02659,0.395601 -0.03828,0.791012 -0.0066,1.186613 0.693149,0.274734 1.389127,0.488373 2.111693,0.638657 0.04129,0.276053 0.07731,0.553802 0.157636,0.82269 0.06769,0.270963 0.134821,0.542867 0.240793,0.802138 -0.562666,0.425017 -1.134193,0.911126 -1.633692,1.423069 0.173853,0.357135 0.332245,0.72332 0.549467,1.056129 0.748398,-0.08315 1.456256,-0.213639 2.166186,-0.418981 0.168762,0.222313 0.327154,0.454431 0.523823,0.653174 0.186298,0.208548 0.372597,0.416909 0.586236,0.598115 -0.301886,0.638656 -0.58039,1.331805 -0.78743,2.017413 0.31829,0.237964 0.629039,0.485545 0.975236,0.681459 0.623195,-0.418417 1.192648,-0.86474 1.726652,-1.375929 0.251918,0.121433 0.500063,0.250409 0.766688,0.336581 0.262288,0.09805 0.523635,0.197424 0.797614,0.257009 0.03036,0.704275 0.106158,1.449655 0.243808,2.152987 0.392585,0.05525 0.783848,0.140668 1.180015,0.146702 0.355813,-0.670334 0.6511,-1.317099 0.886047,-2.018356 0.278504,-0.02055 0.559083,-0.0132 0.836079,-0.05732 0.273979,-0.0494 0.555312,-0.06996 0.824954,-0.14293 0.355059,0.612825 0.760842,1.213202 1.216029,1.79642 0.374293,-0.13105 0.752734,-0.257762 1.115903,-0.418227 0.0053,-0.758015 -0.04262,-1.486426 -0.153111,-2.199375 0.237209,-0.148208 0.482338,-0.284349 0.71144,-0.443495 0.220993,-0.170835 0.455939,-0.324889 0.663734,-0.511188 0.598681,0.376367 1.237336,0.718982 1.910686,1.023885 0.269455,-0.289441 0.546451,-0.576053 0.791014,-0.886802 -0.347707,-0.674859 -0.724828,-1.295035 -1.155689,-1.878253 0.14142,-0.240982 0.299811,-0.472911 0.425769,-0.721812 0.116343,-0.25418 0.255501,-0.497989 0.350535,-0.761031 0.705596,0.056 1.430423,0.0626 2.168451,0.01848 0.105405,-0.382213 0.213639,-0.766688 0.289441,-1.155689 -0.620931,-0.434633 -1.253553,-0.809492 -1.896545,-1.122503 l 0.04186,-0.837398" />
    <path
       id="path23905"
       style="fill:#ac1d94;fill-opacity:1;fill-rule:nonzero;stroke:none;stroke-width:0.188561"
       d="m 70.46257,20.263119 c -0.729919,0 -1.323698,-0.593023 -1.323698,-1.323698 0,-0.731428 0.593779,-1.322754 1.323698,-1.322754 0.730673,0 1.322188,0.591326 1.322188,1.322754 0,0.730675 -0.591515,1.323698 -1.322188,1.323698 z m -4.115907,0 c -0.730673,0 -1.323697,-0.593023 -1.323697,-1.323698 0,-0.731428 0.593024,-1.322754 1.323697,-1.322754 0.729166,0 1.323508,0.591326 1.323508,1.322754 0,0.730675 -0.594342,1.323698 -1.323508,1.323698" />
  </g>
  <path
     id="path23979"
     style="fill:#f2f2f2;fill-opacity:1;fill-rule:nonzero;stroke:none;stroke-width:0.352779"
     d="m -4.6579766,11.961797 c -5.5040374,0 -10.0901504,-4.4746342 -10.0901504,-10.0612222 0,-5.559074 4.586113,-10.116256 10.0901504,-10.116256 5.586591,0 10.145186,4.557182 10.145186,10.116256 0,5.586588 -4.558595,10.0612222 -10.145186,10.0612222 z M 11.061097,1.8801148 10.982787,0.31448581 c 1.213908,-0.519641 2.410176,-1.135591 3.588456,-1.84643901 -0.09666,-0.737307 -0.335141,-1.448505 -0.508707,-2.170643 -1.387475,-0.188735 -2.791883,-0.250823 -4.1299706,-0.213431 -0.177798,-0.490713 -0.438148,-0.946855 -0.655814,-1.423457 -0.235654,-0.46602 -0.531988,-0.898525 -0.79657,-1.350435 0.847371,-1.035049 1.6040796,-2.127953 2.3177496,-3.308702 -0.425804,-0.6092458 -0.9687286,-1.1218318 -1.4580306,-1.6785158 -1.31304,0.479424 -2.585157,1.077735 -3.752144,1.7321388 -0.388764,-0.3499568 -0.828323,-0.6381758 -1.241779,-0.9592028 -0.428625,-0.297392 -0.887236,-0.55104 -1.33103,-0.826559 0.268464,-1.306688 0.435327,-2.629606 0.519288,-4.006144 -0.662869,-0.341842 -1.383595,-0.545747 -2.07645,-0.813154 -0.941212,1.035052 -1.790347,2.158295 -2.519186,3.279775 -0.504471,-0.135113 -1.030816,-0.174977 -1.543403,-0.265993 -0.51823,-0.08255 -1.043164,-0.06879 -1.564216,-0.107246 -0.370417,-1.313389 -0.837848,-2.53012 -1.399823,-3.79095 -0.741539,0.01517 -1.477435,0.130883 -2.211918,0.248004 -0.358069,1.326796 -0.588433,2.72556 -0.709787,4.070702 -0.512586,0.110067 -1.001539,0.296334 -1.492252,0.479426 -0.4988284,0.159808 -0.9630824,0.402519 -1.4343944,0.628298 -0.935918,-0.981076 -1.933574,-1.873956 -3.009899,-2.706158 -0.647702,0.367592 -1.253773,0.794807 -1.839737,1.252359 0.304799,1.345142 0.747183,2.678994 1.267884,3.9302988 -0.399697,0.33902 -0.748243,0.728839 -1.096787,1.11901 -0.367948,0.373239 -0.664282,0.804686 -0.980018,1.222377 -1.284109,-0.437093 -2.576689,-0.763413 -3.919009,-1.004713 -0.404988,0.624417 -0.740125,1.286933 -1.051276,1.963563 0.890058,1.050218 1.907116,2.031295 2.946047,2.895246 -0.198261,0.48507 -0.323851,0.993774 -0.450498,1.500717 -0.150282,0.50165 -0.217664,1.02270201 -0.294921,1.53952101 -1.335266,0.213431 -2.65289,0.524934 -3.938413,0.936979 -0.04974,0.74012899 -0.07161,1.47990199 -0.01235,2.22002999 1.296809,0.513998 2.598912,0.913695 3.950758,1.19486 0.07726,0.516467 0.144639,1.036107 0.294921,1.539168 0.126647,0.506943 0.252237,1.015647 0.450498,1.500717 -1.05269,0.795163 -2.121957,1.704622 -3.056467,2.662414 0.325261,0.6681622 0.621596,1.3532572 1.027995,1.9759082 1.400175,-0.155575 2.724504,-0.399697 4.05271,-0.78387 0.315736,0.415925 0.61207,0.850193 0.980018,1.222021 0.348544,0.390172 0.69709,0.779993 1.096787,1.119011 -0.564798,1.19486 -1.08585,2.491669 -1.4732,3.77437 0.595487,0.445205 1.176866,0.908404 1.824566,1.274939 1.165932,-0.782815 2.231319,-1.617839 3.230386,-2.57422 0.471312,0.227189 0.935566,0.468489 1.4343944,0.629708 0.490713,0.183445 0.979666,0.369359 1.492252,0.480837 0.05679,1.317625 0.198612,2.712155 0.456139,4.028016 0.734486,0.103366 1.466499,0.263174 2.207686,0.274463 0.66569,-1.254126 1.218141,-2.464155 1.657703,-3.776133 0.521052,-0.03845 1.045986,-0.0247 1.564216,-0.107246 0.512587,-0.09243 1.038932,-0.130881 1.543403,-0.267407 0.66428,1.14653 1.423457,2.269774 2.275064,3.360915 0.700264,-0.245181 1.408288,-0.482246 2.087739,-0.78246 0.0099,-1.418166 -0.07973,-2.780949 -0.286455,-4.114801 0.443794,-0.277282 0.902405,-0.531988 1.33103,-0.829733 0.413456,-0.319616 0.853015,-0.607835 1.241779,-0.956381 1.120069,0.704143 2.314926,1.345141 3.574695,1.915583 0.504122,-0.541514 1.0223516,-1.077735 1.4799036,-1.659114 -0.6505226,-1.262591 -1.3560776,-2.422877 -2.1621736,-3.514018 0.264582,-0.4508512 0.560916,-0.8847672 0.79657,-1.3504352 0.217666,-0.475544 0.478016,-0.931686 0.655814,-1.42381 1.3200966,0.104774 2.6761726,0.117122 4.0569456,0.03457 0.197204,-0.71508 0.399698,-1.434393 0.541515,-2.162174 -1.161702,-0.813154 -2.345272,-1.514476 -3.548244,-2.100087 l 0.07831,-1.566685 M 34.057483,68.675936 c -5.504037,0 -10.09015,-4.474634 -10.09015,-10.061222 0,-5.559074 4.586113,-10.116256 10.09015,-10.116256 5.586591,0 10.145186,4.557182 10.145186,10.116256 0,5.586588 -4.558595,10.061222 -10.145186,10.061222 z m 15.719074,-10.081682 -0.07831,-1.565629 c 1.213908,-0.519641 2.410176,-1.135591 3.588456,-1.846439 -0.09666,-0.737307 -0.335141,-1.448505 -0.508707,-2.170643 -1.387475,-0.188735 -2.791883,-0.250823 -4.129971,-0.213431 -0.177798,-0.490713 -0.438148,-0.946855 -0.655814,-1.423457 -0.235654,-0.46602 -0.531988,-0.898525 -0.79657,-1.350435 0.847371,-1.035049 1.60408,-2.127953 2.31775,-3.308702 -0.425804,-0.609246 -0.968729,-1.121832 -1.458031,-1.678516 -1.31304,0.479424 -2.585157,1.077735 -3.752144,1.732139 -0.388764,-0.349957 -0.828323,-0.638176 -1.241779,-0.959203 -0.428625,-0.297392 -0.887236,-0.55104 -1.33103,-0.826559 0.268464,-1.306688 0.435327,-2.629606 0.519288,-4.006144 -0.662869,-0.341842 -1.383595,-0.545747 -2.07645,-0.813154 -0.941212,1.035052 -1.790347,2.158295 -2.519186,3.279775 -0.504471,-0.135113 -1.030816,-0.174977 -1.543403,-0.265993 -0.51823,-0.08255 -1.043164,-0.06879 -1.564216,-0.107246 -0.370417,-1.313389 -0.837848,-2.53012 -1.399823,-3.79095 -0.741539,0.01517 -1.477435,0.130883 -2.211918,0.248004 -0.358069,1.326796 -0.588433,2.72556 -0.709787,4.070702 -0.512586,0.110067 -1.001539,0.296334 -1.492252,0.479426 -0.498828,0.159808 -0.963082,0.402519 -1.434394,0.628298 -0.935918,-0.981076 -1.933574,-1.873956 -3.009899,-2.706158 -0.647702,0.367592 -1.253773,0.794807 -1.839737,1.252359 0.304799,1.345142 0.747183,2.678994 1.267884,3.930299 -0.399697,0.33902 -0.748243,0.728839 -1.096787,1.11901 -0.367948,0.373239 -0.664282,0.804686 -0.980018,1.222377 C 20.3556,49.086891 19.06302,48.760571 17.7207,48.519271 c -0.404988,0.624417 -0.740125,1.286933 -1.051276,1.963563 0.890058,1.050218 1.907116,2.031295 2.946047,2.895246 -0.198261,0.48507 -0.323851,0.993774 -0.450498,1.500717 -0.150282,0.50165 -0.217664,1.022702 -0.294921,1.539521 -1.335266,0.213431 -2.65289,0.524934 -3.938413,0.936979 -0.04974,0.740129 -0.07161,1.479902 -0.01235,2.22003 1.296809,0.513998 2.598912,0.913695 3.950758,1.19486 0.07726,0.516467 0.144639,1.036107 0.294921,1.539168 0.126647,0.506943 0.252237,1.015647 0.450498,1.500717 -1.05269,0.795163 -2.121957,1.704622 -3.056467,2.662414 0.325261,0.668162 0.621596,1.353257 1.027995,1.975908 1.400175,-0.155575 2.724504,-0.399697 4.05271,-0.78387 0.315736,0.415925 0.61207,0.850193 0.980018,1.222021 0.348544,0.390172 0.69709,0.779993 1.096787,1.119011 -0.564798,1.19486 -1.08585,2.491669 -1.4732,3.77437 0.595487,0.445205 1.176866,0.908404 1.824566,1.274939 1.165932,-0.782815 2.231319,-1.617839 3.230386,-2.57422 0.471312,0.227189 0.935566,0.468489 1.434394,0.629708 0.490713,0.183445 0.979666,0.369359 1.492252,0.480837 0.05679,1.317625 0.198612,2.712155 0.456139,4.028016 0.734486,0.103366 1.466499,0.263174 2.207686,0.274463 0.66569,-1.254126 1.218141,-2.464155 1.657703,-3.776133 0.521052,-0.03845 1.045986,-0.0247 1.564216,-0.107246 0.512587,-0.09243 1.038932,-0.130881 1.543403,-0.267407 0.66428,1.14653 1.423457,2.269774 2.275064,3.360915 0.700264,-0.245181 1.408288,-0.482246 2.087739,-0.78246 0.0099,-1.418166 -0.07973,-2.780949 -0.286455,-4.114801 0.443794,-0.277282 0.902405,-0.531988 1.33103,-0.829733 0.413456,-0.319616 0.853015,-0.607835 1.241779,-0.956381 1.120069,0.704143 2.314926,1.345141 3.574695,1.915583 0.504122,-0.541514 1.022352,-1.077735 1.479904,-1.659114 -0.650523,-1.262591 -1.356078,-2.422877 -2.162174,-3.514018 0.264582,-0.450851 0.560916,-0.884767 0.79657,-1.350435 0.217666,-0.475544 0.478016,-0.931686 0.655814,-1.42381 1.320097,0.104774 2.676173,0.117122 4.056946,0.03457 0.197204,-0.71508 0.399698,-1.434393 0.541515,-2.162174 -1.161702,-0.813154 -2.345272,-1.514476 -3.548244,-2.100087 l 0.07831,-1.566685"
     clip-path="url(#clipPath23988)"
     transform="scale(1.0015879,1.0034297)" />
</svg>
